<svg xmlns="http://www.w3.org/2000/svg" xmlns:xlink="http://www.w3.org/1999/xlink" width="500" zoomAndPan="magnify" viewBox="0 0 375 374.999991" height="500" preserveAspectRatio="xMidYMid meet" version="1.0"><defs><g/><clipPath id="f3bea45a16"><path d="M 132.347656 147.21875 L 158.597656 147.21875 L 158.597656 173.46875 L 132.347656 173.46875 Z M 132.347656 147.21875 " clip-rule="nonzero"/></clipPath></defs><g fill="#2b2b2b" fill-opacity="1"><g transform="translate(100.701278, 201.497864)"><g><path d="M 4.53125 -6 C 5.363281 -6 6.050781 -5.71875 6.59375 -5.15625 C 7.144531 -4.59375 7.421875 -3.910156 7.421875 -3.109375 C 7.421875 -2.316406 7.132812 -1.640625 6.5625 -1.078125 C 6 -0.515625 5.320312 -0.234375 4.53125 -0.234375 C 3.738281 -0.234375 3.066406 -0.515625 2.515625 -1.078125 C 1.972656 -1.640625 1.703125 -2.316406 1.703125 -3.109375 C 1.703125 -3.941406 1.972656 -4.628906 2.515625 -5.171875 C 3.066406 -5.722656 3.738281 -6 4.53125 -6 Z M 4.53125 -6 "/></g></g></g><g fill="#2b2b2b" fill-opacity="1"><g transform="translate(107.104995, 201.497864)"><g><path d="M 36.890625 -3.34375 C 37.191406 -3.53125 37.425781 -3.507812 37.59375 -3.28125 C 37.769531 -3.0625 37.765625 -2.835938 37.578125 -2.609375 C 36.398438 -1.546875 35.140625 -0.832031 33.796875 -0.46875 C 32.460938 -0.113281 31 0.0195312 29.40625 -0.0625 C 27.101562 -0.132812 25.242188 -0.613281 23.828125 -1.5 C 22.410156 -2.382812 21.570312 -3.941406 21.3125 -6.171875 C 21.007812 -9.085938 20.535156 -11.335938 19.890625 -12.921875 C 19.242188 -14.503906 18.539062 -15.597656 17.78125 -16.203125 C 17.03125 -16.804688 16.320312 -17.023438 15.65625 -16.859375 C 15 -16.691406 14.484375 -16.265625 14.109375 -15.578125 L 14.21875 -2.609375 L 18.1875 -0.90625 L 18.1875 0.0625 C 18.1875 0.0625 17.789062 0.0507812 17 0.03125 C 16.207031 0.0078125 15.140625 0 13.796875 0 C 12.453125 0 10.96875 0 9.34375 0 C 6.894531 0 4.800781 0.0078125 3.0625 0.03125 C 1.320312 0.0507812 0.453125 0.0625 0.453125 0.0625 L 0.453125 -0.90625 L 4.59375 -2.609375 L 4.53125 -35.140625 C 4.53125 -35.859375 4.554688 -36.613281 4.609375 -37.40625 C 4.671875 -38.195312 4.703125 -38.59375 4.703125 -38.59375 L 0.390625 -40.40625 L 0.390625 -41.203125 C 0.390625 -41.203125 0.785156 -41.203125 1.578125 -41.203125 C 2.378906 -41.203125 3.429688 -41.203125 4.734375 -41.203125 C 6.035156 -41.203125 7.457031 -41.203125 9 -41.203125 C 10.550781 -41.203125 12.117188 -41.203125 13.703125 -41.203125 C 15.296875 -41.203125 16.734375 -41.203125 18.015625 -41.203125 C 20.171875 -41.160156 22.191406 -41.054688 24.078125 -40.890625 C 25.972656 -40.722656 27.65625 -40.351562 29.125 -39.78125 C 30.601562 -39.21875 31.796875 -38.3125 32.703125 -37.0625 C 33.609375 -35.8125 34.175781 -34.113281 34.40625 -31.96875 C 34.550781 -30.226562 34.253906 -28.78125 33.515625 -27.625 C 32.785156 -26.476562 31.765625 -25.515625 30.453125 -24.734375 C 29.148438 -23.960938 27.707031 -23.273438 26.125 -22.671875 C 24.539062 -22.066406 22.953125 -21.460938 21.359375 -20.859375 C 19.773438 -20.253906 18.34375 -19.515625 17.0625 -18.640625 C 19.4375 -19.097656 21.453125 -19.128906 23.109375 -18.734375 C 24.773438 -18.335938 26.15625 -17.644531 27.25 -16.65625 C 28.351562 -15.675781 29.253906 -14.550781 29.953125 -13.28125 C 30.648438 -12.019531 31.210938 -10.738281 31.640625 -9.4375 C 32.078125 -8.132812 32.457031 -6.953125 32.78125 -5.890625 C 33.101562 -4.835938 33.4375 -4.046875 33.78125 -3.515625 C 34.082031 -3.023438 34.550781 -2.75 35.1875 -2.6875 C 35.832031 -2.632812 36.398438 -2.851562 36.890625 -3.34375 Z M 17.6875 -40.296875 C 16.695312 -40.253906 15.851562 -39.804688 15.15625 -38.953125 C 14.457031 -38.109375 14.109375 -36.835938 14.109375 -35.140625 L 14.109375 -17.734375 C 15.242188 -18.984375 16.328125 -20.003906 17.359375 -20.796875 C 18.398438 -21.585938 19.363281 -22.285156 20.25 -22.890625 C 21.144531 -23.492188 21.929688 -24.125 22.609375 -24.78125 C 23.285156 -25.445312 23.84375 -26.257812 24.28125 -27.21875 C 24.71875 -28.1875 24.992188 -29.445312 25.109375 -31 C 25.253906 -32.851562 24.929688 -34.492188 24.140625 -35.921875 C 23.347656 -37.359375 22.351562 -38.460938 21.15625 -39.234375 C 19.96875 -40.015625 18.8125 -40.367188 17.6875 -40.296875 Z M 17.6875 -40.296875 "/></g></g></g><g fill="#2b2b2b" fill-opacity="1"><g transform="translate(143.94165, 201.497864)"><g><path d="M 27.828125 -0.84375 L 27.828125 0 C 27.828125 0 26.957031 -0.0078125 25.21875 -0.03125 C 23.476562 -0.0507812 21.378906 -0.0625 18.921875 -0.0625 C 17.828125 -0.0625 16.769531 -0.0507812 15.75 -0.03125 C 14.726562 -0.0078125 14.21875 0 14.21875 0 L 14.21875 -3.171875 C 13.09375 -1.660156 11.765625 -0.617188 10.234375 -0.046875 C 8.703125 0.515625 7.207031 0.632812 5.75 0.3125 C 4.300781 -0.0078125 3.09375 -0.773438 2.125 -1.984375 C 1.164062 -3.191406 0.6875 -4.816406 0.6875 -6.859375 C 0.6875 -8.710938 1.070312 -10.195312 1.84375 -11.3125 C 2.613281 -12.425781 3.59375 -13.320312 4.78125 -14 C 5.976562 -14.675781 7.207031 -15.238281 8.46875 -15.6875 C 9.738281 -16.144531 10.898438 -16.609375 11.953125 -17.078125 C 13.015625 -17.554688 13.789062 -18.171875 14.28125 -18.921875 C 14.320312 -21.796875 14.320312 -24 14.28125 -25.53125 C 14.238281 -27.0625 14.171875 -28.175781 14.078125 -28.875 C 13.984375 -29.570312 13.820312 -30.109375 13.59375 -30.484375 C 13.375 -30.898438 12.929688 -31.175781 12.265625 -31.3125 C 11.609375 -31.445312 10.929688 -31.363281 10.234375 -31.0625 C 9.535156 -30.757812 8.992188 -30.171875 8.609375 -29.296875 C 8.234375 -28.429688 8.1875 -27.222656 8.46875 -25.671875 C 8.75 -24.117188 9.535156 -22.132812 10.828125 -19.71875 C 10.597656 -19.488281 10.367188 -19.300781 10.140625 -19.15625 C 9.117188 -19.300781 8.015625 -19.503906 6.828125 -19.765625 C 5.640625 -20.035156 4.546875 -20.3125 3.546875 -20.59375 C 2.546875 -20.882812 1.78125 -21.101562 1.25 -21.25 C 1.0625 -21.320312 0.921875 -21.472656 0.828125 -21.703125 C 0.734375 -21.929688 0.6875 -22.117188 0.6875 -22.265625 C 0.832031 -24.347656 1.425781 -26.066406 2.46875 -27.421875 C 3.507812 -28.785156 4.789062 -29.84375 6.3125 -30.59375 C 7.84375 -31.351562 9.488281 -31.828125 11.25 -32.015625 C 13.007812 -32.203125 14.703125 -32.144531 16.328125 -31.84375 C 17.953125 -31.539062 19.367188 -31.007812 20.578125 -30.25 C 21.785156 -29.5 22.597656 -28.578125 23.015625 -27.484375 C 23.421875 -26.535156 23.671875 -25.363281 23.765625 -23.96875 C 23.867188 -22.570312 23.921875 -20.929688 23.921875 -19.046875 C 23.921875 -18.515625 23.921875 -17.625 23.921875 -16.375 C 23.921875 -15.132812 23.921875 -13.738281 23.921875 -12.1875 C 23.921875 -10.632812 23.910156 -9.128906 23.890625 -7.671875 C 23.867188 -6.222656 23.859375 -5.023438 23.859375 -4.078125 C 23.859375 -3.128906 23.859375 -2.65625 23.859375 -2.65625 Z M 9.46875 -8.734375 C 9.46875 -6.992188 9.75 -5.734375 10.3125 -4.953125 C 10.882812 -4.179688 11.546875 -3.75 12.296875 -3.65625 C 13.054688 -3.5625 13.695312 -3.6875 14.21875 -4.03125 C 14.21875 -4.03125 14.21875 -4.429688 14.21875 -5.234375 C 14.21875 -6.046875 14.226562 -7.066406 14.25 -8.296875 C 14.269531 -9.523438 14.28125 -10.800781 14.28125 -12.125 C 14.28125 -13.445312 14.28125 -14.644531 14.28125 -15.71875 C 14.28125 -16.800781 14.28125 -17.566406 14.28125 -18.015625 C 13.675781 -17.191406 12.992188 -16.398438 12.234375 -15.640625 C 11.484375 -14.890625 10.832031 -13.984375 10.28125 -12.921875 C 9.738281 -11.859375 9.46875 -10.460938 9.46875 -8.734375 Z M 9.46875 -8.734375 "/></g></g></g><g fill="#2b2b2b" fill-opacity="1"><g transform="translate(170.293961, 201.497864)"><g><path d="M 13.3125 -30.65625 C 14.789062 -31.488281 16.378906 -32.007812 18.078125 -32.21875 C 19.773438 -32.425781 21.226562 -32.378906 22.4375 -32.078125 C 22.4375 -32.035156 22.425781 -31.703125 22.40625 -31.078125 C 22.394531 -30.460938 22.390625 -29.695312 22.390625 -28.78125 C 22.390625 -27.875 22.378906 -26.96875 22.359375 -26.0625 C 22.335938 -25.15625 22.328125 -24.390625 22.328125 -23.765625 C 22.328125 -23.148438 22.328125 -22.820312 22.328125 -22.78125 C 22.140625 -22.851562 21.828125 -23.160156 21.390625 -23.703125 C 20.953125 -24.253906 20.453125 -24.925781 19.890625 -25.71875 C 19.328125 -26.519531 18.757812 -27.296875 18.1875 -28.046875 C 17.625 -28.804688 17.101562 -29.441406 16.625 -29.953125 C 16.15625 -30.460938 15.769531 -30.71875 15.46875 -30.71875 C 14.445312 -30.5625 13.726562 -29.9375 13.3125 -28.84375 C 13.3125 -27.863281 13.3125 -26.53125 13.3125 -24.84375 C 13.3125 -23.164062 13.3125 -21.34375 13.3125 -19.375 C 13.3125 -17.414062 13.320312 -15.453125 13.34375 -13.484375 C 13.363281 -11.523438 13.375 -9.722656 13.375 -8.078125 C 13.375 -6.429688 13.375 -5.109375 13.375 -4.109375 C 13.375 -3.109375 13.375 -2.609375 13.375 -2.609375 L 15.984375 -0.796875 L 15.984375 0.0625 L 0.734375 0.0625 L 0.6875 -0.796875 L 3.6875 -2.609375 L 3.6875 -29.75 L 1.078125 -31.453125 L 1.078125 -32.296875 C 1.078125 -32.296875 1.394531 -32.296875 2.03125 -32.296875 C 2.675781 -32.296875 3.488281 -32.296875 4.46875 -32.296875 C 5.457031 -32.296875 6.453125 -32.296875 7.453125 -32.296875 C 8.453125 -32.296875 9.328125 -32.296875 10.078125 -32.296875 C 10.835938 -32.296875 11.296875 -32.296875 11.453125 -32.296875 C 12.617188 -32.296875 13.238281 -31.75 13.3125 -30.65625 Z M 13.3125 -30.65625 "/></g></g></g><g fill="#2b2b2b" fill-opacity="1"><g transform="translate(191.489103, 201.497864)"><g><path d="M 12.234375 -23.6875 C 13.066406 -22.632812 14.132812 -21.507812 15.4375 -20.3125 C 16.738281 -19.125 18.039062 -17.882812 19.34375 -16.59375 C 20.65625 -15.3125 21.742188 -13.988281 22.609375 -12.625 C 23.484375 -11.269531 23.9375 -9.851562 23.96875 -8.375 C 24.007812 -6.90625 23.390625 -5.398438 22.109375 -3.859375 C 20.929688 -2.453125 19.484375 -1.472656 17.765625 -0.921875 C 16.046875 -0.378906 14.25 -0.109375 12.375 -0.109375 C 10.507812 -0.109375 8.726562 -0.269531 7.03125 -0.59375 C 5.332031 -0.914062 3.90625 -1.253906 2.75 -1.609375 C 1.59375 -1.972656 0.921875 -2.210938 0.734375 -2.328125 C 0.734375 -2.359375 0.851562 -2.710938 1.09375 -3.390625 C 1.34375 -4.078125 1.628906 -4.882812 1.953125 -5.8125 C 2.273438 -6.738281 2.578125 -7.644531 2.859375 -8.53125 C 3.140625 -9.414062 3.359375 -10.085938 3.515625 -10.546875 L 4.53125 -10.546875 C 4.90625 -9.710938 5.242188 -8.773438 5.546875 -7.734375 C 5.847656 -6.691406 6.21875 -5.6875 6.65625 -4.71875 C 7.09375 -3.757812 7.671875 -2.941406 8.390625 -2.265625 C 9.109375 -1.585938 10.050781 -1.171875 11.21875 -1.015625 C 12.007812 -0.898438 12.71875 -0.992188 13.34375 -1.296875 C 13.96875 -1.597656 14.351562 -2.144531 14.5 -2.9375 C 14.65625 -3.738281 14.429688 -4.78125 13.828125 -6.0625 C 13.035156 -7.726562 12.015625 -9.144531 10.765625 -10.3125 C 9.515625 -11.488281 8.226562 -12.625 6.90625 -13.71875 C 5.59375 -14.8125 4.425781 -16.035156 3.40625 -17.390625 C 1.78125 -19.472656 0.878906 -21.363281 0.703125 -23.0625 C 0.535156 -24.757812 0.90625 -26.238281 1.8125 -27.5 C 2.71875 -28.769531 3.992188 -29.800781 5.640625 -30.59375 C 7.285156 -31.394531 9.144531 -31.90625 11.21875 -32.125 C 13.300781 -32.351562 15.414062 -32.269531 17.5625 -31.875 C 19.71875 -31.476562 21.738281 -30.734375 23.625 -29.640625 C 23.625 -29.597656 23.492188 -29.226562 23.234375 -28.53125 C 22.972656 -27.832031 22.648438 -27 22.265625 -26.03125 C 21.890625 -25.070312 21.53125 -24.15625 21.1875 -23.28125 C 20.851562 -22.414062 20.628906 -21.773438 20.515625 -21.359375 L 19.609375 -21.359375 C 19.378906 -22.003906 19.09375 -22.898438 18.75 -24.046875 C 18.414062 -25.203125 18.019531 -26.367188 17.5625 -27.546875 C 17.070312 -28.828125 16.382812 -29.78125 15.5 -30.40625 C 14.613281 -31.03125 13.722656 -31.332031 12.828125 -31.3125 C 11.941406 -31.289062 11.222656 -30.988281 10.671875 -30.40625 C 10.128906 -29.820312 9.941406 -28.960938 10.109375 -27.828125 C 10.285156 -26.691406 10.992188 -25.3125 12.234375 -23.6875 Z M 12.234375 -23.6875 "/></g></g></g><g clip-path="url(#f3bea45a16)"><path fill="#2b2b2b" d="M 158.558594 160.324219 C 148.730469 162.132812 147.261719 163.601562 145.453125 173.429688 C 143.640625 163.601562 142.175781 162.132812 132.347656 160.324219 C 142.175781 158.515625 143.640625 157.046875 145.453125 147.21875 C 147.261719 157.046875 148.730469 158.515625 158.558594 160.324219 Z M 158.558594 160.324219 " fill-opacity="1" fill-rule="nonzero"/></g><g fill="#2b2b2b" fill-opacity="1"><g transform="translate(221.64009, 223.324029)"><g><path d="M 9.5 -8.171875 L 11.390625 -8.171875 L 9.15625 0 L 7.09375 0 L 5.609375 -5.75 L 4.109375 0 L 2.046875 0 L -0.1875 -8.171875 L 1.703125 -8.171875 L 3.171875 -2.484375 L 4.734375 -8.171875 L 6.46875 -8.171875 L 8.046875 -2.515625 Z M 9.5 -8.171875 "/></g></g></g><g fill="#2b2b2b" fill-opacity="1"><g transform="translate(234.245724, 223.324029)"><g><path d="M 5.796875 -6.59375 L 2.671875 -6.59375 L 2.671875 -4.875 L 5.34375 -4.875 L 5.34375 -3.296875 L 2.671875 -3.296875 L 2.671875 -1.578125 L 5.796875 -1.578125 L 5.796875 0 L 0.875 0 L 0.875 -8.171875 L 5.796875 -8.171875 Z M 5.796875 -6.59375 "/></g></g></g><g fill="#2b2b2b" fill-opacity="1"><g transform="translate(242.001525, 223.324029)"><g><path d="M 5.71875 -4.140625 C 6.101562 -3.992188 6.410156 -3.765625 6.640625 -3.453125 C 6.878906 -3.140625 7 -2.734375 7 -2.234375 C 7 -1.753906 6.890625 -1.347656 6.671875 -1.015625 C 6.460938 -0.679688 6.175781 -0.425781 5.8125 -0.25 C 5.445312 -0.0820312 5.035156 0 4.578125 0 L 0.796875 0 L 0.796875 -8.171875 L 4.265625 -8.171875 C 4.734375 -8.171875 5.148438 -8.082031 5.515625 -7.90625 C 5.890625 -7.726562 6.1875 -7.46875 6.40625 -7.125 C 6.625 -6.789062 6.734375 -6.382812 6.734375 -5.90625 C 6.734375 -5.476562 6.640625 -5.117188 6.453125 -4.828125 C 6.273438 -4.535156 6.03125 -4.304688 5.71875 -4.140625 Z M 4.9375 -5.71875 C 4.9375 -5.957031 4.847656 -6.160156 4.671875 -6.328125 C 4.503906 -6.492188 4.296875 -6.578125 4.046875 -6.578125 L 2.609375 -6.578125 L 2.609375 -4.828125 L 4.046875 -4.828125 C 4.296875 -4.828125 4.503906 -4.914062 4.671875 -5.09375 C 4.847656 -5.269531 4.9375 -5.476562 4.9375 -5.71875 Z M 4.328125 -1.59375 C 4.578125 -1.59375 4.785156 -1.675781 4.953125 -1.84375 C 5.117188 -2.007812 5.203125 -2.21875 5.203125 -2.46875 C 5.203125 -2.707031 5.117188 -2.914062 4.953125 -3.09375 C 4.785156 -3.269531 4.578125 -3.359375 4.328125 -3.359375 L 2.609375 -3.359375 L 2.609375 -1.59375 Z M 4.328125 -1.59375 "/></g></g></g><g fill="#2b2b2b" fill-opacity="1"><g transform="translate(250.806314, 223.324029)"><g/></g></g><g fill="#2b2b2b" fill-opacity="1"><g transform="translate(255.483299, 223.324029)"><g><path d="M 5.84375 -8.171875 L 5.84375 -6.578125 L 3.796875 -6.578125 L 3.796875 0 L 2 0 L 2 -6.578125 L -0.0625 -6.578125 L -0.0625 -8.171875 Z M 5.84375 -8.171875 "/></g></g></g><g fill="#2b2b2b" fill-opacity="1"><g transform="translate(262.66693, 223.324029)"><g><path d="M 5.796875 -6.59375 L 2.671875 -6.59375 L 2.671875 -4.875 L 5.34375 -4.875 L 5.34375 -3.296875 L 2.671875 -3.296875 L 2.671875 -1.578125 L 5.796875 -1.578125 L 5.796875 0 L 0.875 0 L 0.875 -8.171875 L 5.796875 -8.171875 Z M 5.796875 -6.59375 "/></g></g></g><g fill="#2b2b2b" fill-opacity="1"><g transform="translate(270.422731, 223.324029)"><g><path d="M 4.703125 0.109375 C 4.117188 0.109375 3.570312 0 3.0625 -0.21875 C 2.5625 -0.4375 2.117188 -0.738281 1.734375 -1.125 C 1.347656 -1.507812 1.046875 -1.953125 0.828125 -2.453125 C 0.609375 -2.960938 0.5 -3.507812 0.5 -4.09375 C 0.5 -4.675781 0.609375 -5.21875 0.828125 -5.71875 C 1.046875 -6.21875 1.347656 -6.660156 1.734375 -7.046875 C 2.117188 -7.441406 2.5625 -7.742188 3.0625 -7.953125 C 3.570312 -8.171875 4.117188 -8.28125 4.703125 -8.28125 C 5.515625 -8.28125 6.25 -8.070312 6.90625 -7.65625 C 7.570312 -7.25 8.078125 -6.710938 8.421875 -6.046875 L 6.875 -5.234375 C 6.675781 -5.628906 6.382812 -5.941406 6 -6.171875 C 5.613281 -6.410156 5.179688 -6.53125 4.703125 -6.53125 C 4.242188 -6.53125 3.832031 -6.421875 3.46875 -6.203125 C 3.101562 -5.992188 2.8125 -5.703125 2.59375 -5.328125 C 2.382812 -4.960938 2.28125 -4.550781 2.28125 -4.09375 C 2.28125 -3.625 2.382812 -3.207031 2.59375 -2.84375 C 2.8125 -2.476562 3.101562 -2.1875 3.46875 -1.96875 C 3.832031 -1.757812 4.242188 -1.65625 4.703125 -1.65625 C 5.179688 -1.65625 5.613281 -1.769531 6 -2 C 6.382812 -2.238281 6.675781 -2.550781 6.875 -2.9375 L 8.421875 -2.140625 C 8.078125 -1.472656 7.570312 -0.929688 6.90625 -0.515625 C 6.25 -0.0976562 5.515625 0.109375 4.703125 0.109375 Z M 4.703125 0.109375 "/></g></g></g><g fill="#2b2b2b" fill-opacity="1"><g transform="translate(280.603457, 223.324029)"><g><path d="M 5.9375 -8.171875 L 7.71875 -8.171875 L 7.71875 0 L 5.9375 0 L 5.9375 -3.296875 L 2.609375 -3.296875 L 2.609375 0 L 0.796875 0 L 0.796875 -8.171875 L 2.609375 -8.171875 L 2.609375 -4.890625 L 5.9375 -4.890625 Z M 5.9375 -8.171875 "/></g></g></g></svg>